<svg width="66" height="65" viewBox="0 0 66 65" fill="none" xmlns="http://www.w3.org/2000/svg">
<path d="M0 10.8213V21.6425H1.62794H3.25589V12.43V3.2174H12.5789H21.9019V1.60874V7.82013e-05H10.9509H0V10.8213Z" fill="#135DA1"/>
<path d="M65.7791 54.1788V43.3576H64.1511H62.5232V52.5701V61.7827H53.2002H43.8772V63.3914V65H54.8281H65.7791V54.1788Z" fill="#135DA1"/>
<path d="M54.6944 32.6178C54.6944 44.4946 44.9325 54.1292 32.8823 54.1292C20.8322 54.1292 11.0703 44.4946 11.0703 32.6178C11.0703 20.7411 20.8322 11.1065 32.8823 11.1065C44.9325 11.1065 54.6944 20.7411 54.6944 32.6178Z" stroke="#135DA1" stroke-width="0.567885"/>
<path fill-rule="evenodd" clip-rule="evenodd" d="M30.9872 10.9018C19.8536 11.8346 11.0735 20.9107 10.7932 32.0677C10.7925 32.199 10.7922 32.3467 10.7922 32.5101C10.7928 32.8262 10.7936 33.0642 10.7951 33.2413C10.7996 33.398 10.8057 33.5544 10.8135 33.7103C10.8157 33.7143 10.8182 33.714 10.8209 33.7103C10.8353 33.6921 10.8558 33.6759 10.866 33.6759C10.8763 33.6759 10.9461 33.7164 11.022 33.7651C11.0979 33.8137 11.1964 33.8604 11.2374 33.8685C11.3482 33.8867 11.8365 34.0286 12.054 34.1016C12.9506 34.4098 13.4451 34.7017 13.6031 35.0201C13.6954 35.2086 13.7262 35.3526 13.7467 35.7114C13.7816 36.2872 13.7959 36.3784 13.8821 36.5163C13.9744 36.6623 14.0709 36.7008 14.434 36.7373C14.7603 36.7697 14.9449 36.8326 15.4968 37.1043C16.1411 37.4206 16.3052 37.4712 16.7525 37.4956C17.446 37.5341 17.842 37.5949 18.3816 37.7429C19.1797 37.9639 19.7193 38.266 19.9225 38.6026C19.945 38.639 19.9512 38.712 19.9512 38.8661C19.9491 39.0486 19.9389 39.1054 19.8835 39.2676C19.7563 39.6366 19.5696 39.9772 19.0812 40.7334C18.6483 41.4004 18.5868 41.5768 18.4144 42.5966C18.2995 43.2819 18.201 43.6489 18.0184 44.0767C17.7681 44.6606 17.405 45.1107 17.1834 45.1107C16.8571 45.1107 16.2129 45.5547 15.9277 45.9764C15.7861 46.1852 15.7513 46.2663 15.78 46.321C15.7943 46.3474 15.8128 46.3677 15.8231 46.3677C15.8313 46.3677 15.8395 46.3778 15.8395 46.3879C15.8395 46.4001 15.86 46.4326 15.8867 46.4589C15.9113 46.4853 15.9564 46.536 15.9872 46.5745C16.018 46.611 16.0631 46.6637 16.0857 46.69C16.1083 46.7184 16.1226 46.7529 16.1165 46.7671C16.1124 46.7833 16.1165 46.7894 16.1267 46.7833C16.1534 46.7671 16.3545 46.9779 16.3422 47.0104C16.3381 47.0266 16.3463 47.0306 16.3668 47.0225C16.3934 47.0124 16.3976 47.0185 16.3873 47.0448C16.3791 47.0651 16.3811 47.0753 16.3934 47.0671C16.4058 47.059 16.4283 47.0692 16.4468 47.0854C16.4632 47.1036 16.4735 47.1178 16.4673 47.1178C16.4612 47.1178 16.5145 47.1786 16.5884 47.2537C16.6622 47.3307 16.7176 47.4037 16.7115 47.4179C16.7053 47.4341 16.7115 47.4382 16.7238 47.4301C16.7361 47.4219 16.8346 47.5091 16.9495 47.6267C17.0623 47.7423 17.1629 47.8457 17.1731 47.8578C17.2017 47.8841 17.334 48.0148 17.3534 48.034L17.3537 48.0342C17.358 48.0385 17.3882 48.0673 17.4329 48.1098C17.4734 48.1483 17.5258 48.1981 17.5814 48.2512C17.7004 48.3647 17.7886 48.462 17.7804 48.4742C17.7722 48.4864 17.7763 48.4924 17.7927 48.4864C17.8071 48.4803 17.881 48.535 17.9589 48.608C18.0348 48.681 18.0964 48.7337 18.0964 48.7276C18.0964 48.7215 18.1108 48.7317 18.1292 48.7479C18.1456 48.7661 18.1559 48.7884 18.1477 48.8006C18.1395 48.8128 18.1497 48.8148 18.1703 48.8067C18.1969 48.7966 18.2031 48.8006 18.1928 48.827C18.1846 48.8472 18.1887 48.8554 18.2051 48.8513C18.238 48.8391 18.4514 49.0378 18.4349 49.0642C18.4288 49.0743 18.4349 49.0784 18.4514 49.0743C18.4657 49.0682 18.5006 49.0824 18.5293 49.1047L18.53 49.1053C18.5569 49.1278 18.6097 49.1719 18.6463 49.202C18.6853 49.2325 18.7365 49.2771 18.7632 49.3014C18.7899 49.3277 18.8186 49.348 18.8248 49.348C18.8309 49.348 18.8576 49.3663 18.8822 49.3906C18.9068 49.4149 18.9602 49.4575 18.9992 49.4859C19.0382 49.5163 19.1038 49.571 19.1428 49.6055C19.1818 49.642 19.2208 49.6724 19.231 49.6724C19.2392 49.6724 19.2741 49.7008 19.311 49.7332C19.3459 49.7677 19.3828 49.7941 19.3911 49.7941C19.3993 49.7941 19.43 49.8164 19.4588 49.8447C19.4875 49.8731 19.5203 49.8954 19.5326 49.8954C19.5429 49.8954 19.5531 49.9015 19.5531 49.9096C19.5531 49.9198 19.588 49.9481 19.6291 49.9765C19.6701 50.0049 19.7255 50.0475 19.7501 50.0718C19.7768 50.0982 19.8076 50.1185 19.8199 50.1185C19.8301 50.1185 19.8404 50.1286 19.8404 50.1408C19.8404 50.1509 19.8486 50.157 19.8589 50.1509C19.8671 50.1448 19.8917 50.157 19.9122 50.1793C19.9327 50.2016 19.9614 50.2198 19.9779 50.2198C19.9943 50.2198 20.0004 50.2279 19.9943 50.2401C19.9881 50.2523 19.9963 50.2604 20.0127 50.2604C20.0312 50.2604 20.0456 50.2685 20.0456 50.2806C20.0456 50.2908 20.0599 50.3009 20.0763 50.3009C20.0928 50.3009 20.1276 50.3232 20.1564 50.3516C20.1851 50.38 20.2179 50.4023 20.2302 50.4023C20.2405 50.4023 20.2507 50.4104 20.2507 50.4226C20.2507 50.4327 20.2651 50.4428 20.2815 50.4428C20.2979 50.4428 20.3123 50.4489 20.3123 50.457C20.3123 50.4672 20.3595 50.4996 20.4149 50.5341C20.4723 50.5665 20.5175 50.601 20.5175 50.6091C20.5175 50.6172 20.5318 50.6253 20.5482 50.6253C20.5647 50.6253 20.579 50.6334 20.579 50.6415C20.579 50.6517 20.6159 50.676 20.6611 50.6983C20.7062 50.7186 20.7432 50.7429 20.7432 50.751C20.7432 50.7612 20.7534 50.7672 20.7637 50.7672C20.776 50.7672 20.8027 50.7835 20.8252 50.8017C20.8457 50.822 20.8991 50.8564 20.9422 50.8787C20.9853 50.901 21.0345 50.9335 21.0509 50.9497C21.0673 50.9659 21.1207 50.9984 21.1679 51.0207C21.2171 51.043 21.2561 51.0673 21.2561 51.0754C21.2561 51.0855 21.2705 51.0916 21.2869 51.0916C21.3033 51.0916 21.3176 51.0997 21.3176 51.1119C21.3176 51.122 21.332 51.1322 21.3505 51.1322C21.3669 51.1322 21.3751 51.1403 21.3689 51.1524C21.3628 51.1626 21.371 51.1727 21.3895 51.1727C21.4059 51.1727 21.4572 51.195 21.5023 51.2234C21.5474 51.2518 21.5926 51.2741 21.6049 51.2741C21.6151 51.2741 21.6254 51.2822 21.6254 51.2944C21.6254 51.3045 21.6398 51.3146 21.6562 51.3146C21.6726 51.3146 21.687 51.3207 21.687 51.3288C21.687 51.339 21.728 51.3633 21.7793 51.3856C21.8306 51.4079 21.8716 51.4322 21.8716 51.4403C21.8716 51.4505 21.886 51.4566 21.9024 51.4566C21.9188 51.4566 21.9332 51.4647 21.9332 51.4768C21.9332 51.487 21.9475 51.4971 21.9639 51.4971C21.9804 51.4971 21.9947 51.5052 21.9947 51.5174C21.9947 51.5275 22.0091 51.5377 22.0275 51.5377C22.0645 51.5377 22.1855 51.6005 22.1958 51.6228C22.1999 51.6329 22.2163 51.639 22.2327 51.639C22.2491 51.639 22.2614 51.6451 22.2614 51.6553C22.2614 51.6715 22.4112 51.7404 22.4461 51.7404C22.4584 51.7404 22.4666 51.7485 22.4666 51.7607C22.4666 51.7708 22.481 51.781 22.4974 51.781C22.5138 51.781 22.5282 51.7891 22.5282 51.8012C22.5282 51.8114 22.5466 51.8215 22.5692 51.8215C22.5918 51.8215 22.6102 51.8296 22.6102 51.8418C22.6102 51.8519 22.6246 51.8621 22.641 51.8621C22.6574 51.8621 22.6718 51.8702 22.6718 51.8823C22.6718 51.8925 22.6862 51.9026 22.7026 51.9026C22.7375 51.9026 22.9447 52.006 22.9549 52.0283C22.959 52.0384 22.9796 52.0445 23.0021 52.0445C23.0226 52.0445 23.0411 52.0547 23.0411 52.0668C23.0411 52.077 23.0493 52.083 23.0575 52.077C23.0678 52.0709 23.1047 52.0851 23.1396 52.1074C23.1765 52.1276 23.2196 52.1459 23.236 52.1459C23.2524 52.1459 23.2668 52.154 23.2668 52.1662C23.2668 52.1763 23.2873 52.1864 23.3119 52.1864C23.3366 52.1864 23.3489 52.1925 23.3427 52.2006C23.3284 52.2128 23.433 52.2594 23.5294 52.2817C23.5541 52.2878 23.5746 52.3 23.5746 52.3101C23.5746 52.3203 23.593 52.3284 23.6156 52.3284C23.6382 52.3284 23.6566 52.3365 23.6566 52.3486C23.6566 52.3588 23.6751 52.3689 23.6977 52.3689C23.7202 52.3689 23.7387 52.377 23.7387 52.3892C23.7387 52.3993 23.7531 52.4095 23.7695 52.4095C23.7859 52.4095 23.8475 52.4318 23.907 52.4601C23.9644 52.4885 24.026 52.5108 24.0403 52.5108C24.0567 52.5108 24.0629 52.5189 24.0567 52.5311C24.0485 52.5433 24.067 52.5514 24.0957 52.5514C24.1244 52.5514 24.1491 52.5595 24.1491 52.5717C24.1491 52.5818 24.1634 52.5919 24.1819 52.5919C24.2127 52.5919 24.3173 52.6325 24.3994 52.6751C24.4199 52.6852 24.4507 52.6933 24.4671 52.6933C24.4835 52.6933 24.4979 52.7014 24.4979 52.7136C24.4979 52.7237 24.5225 52.7339 24.5512 52.7339C24.5799 52.7339 24.5984 52.742 24.5902 52.7541C24.584 52.7663 24.5984 52.7744 24.6251 52.7744C24.6517 52.7744 24.6989 52.7886 24.7318 52.8048C24.7625 52.821 24.8077 52.8352 24.8282 52.8352C24.8508 52.8352 24.8672 52.8433 24.8672 52.8555C24.8672 52.8656 24.8918 52.8758 24.9205 52.8758C24.9492 52.8758 24.9677 52.8839 24.9595 52.896C24.9513 52.9082 24.9698 52.9163 24.9985 52.9163C25.0272 52.9163 25.0518 52.9244 25.0518 52.9346C25.0518 52.9447 25.0888 52.9569 25.1339 52.965C25.1811 52.9711 25.2365 52.9873 25.257 52.9974C25.2683 53.0035 25.2832 53.0106 25.298 53.0177C25.3129 53.0248 25.3278 53.0319 25.3391 53.038C25.3616 53.0481 25.3986 53.0582 25.4211 53.0582C25.4458 53.0582 25.4581 53.0664 25.4519 53.0785C25.4437 53.0907 25.4663 53.0988 25.5012 53.0988C25.536 53.0988 25.5648 53.1069 25.5648 53.117C25.5648 53.1272 25.6058 53.1414 25.6571 53.1475C25.7063 53.1556 25.7535 53.1698 25.7597 53.1819C25.7679 53.1921 25.7946 53.2002 25.8233 53.2002C25.85 53.2002 25.8725 53.2083 25.8725 53.2204C25.8725 53.2306 25.9013 53.2407 25.9341 53.2407C25.969 53.2407 25.9956 53.2488 25.9956 53.261C25.9956 53.2711 26.0244 53.2813 26.0572 53.2813C26.0921 53.2813 26.1187 53.2894 26.1187 53.2995C26.1187 53.3097 26.1659 53.3238 26.2213 53.332C26.2788 53.3401 26.3239 53.3543 26.3239 53.3644C26.3239 53.3745 26.3526 53.3826 26.3855 53.3826C26.4203 53.3826 26.447 53.3907 26.447 53.4029C26.447 53.413 26.4798 53.4232 26.5209 53.4232C26.564 53.4232 26.5886 53.4313 26.5804 53.4435C26.5722 53.4556 26.5947 53.4637 26.6358 53.4637C26.6727 53.4658 26.7404 53.4779 26.7856 53.4941C26.8307 53.5104 26.8881 53.5246 26.9148 53.5246C26.9394 53.5246 26.96 53.5327 26.96 53.5448C26.96 53.555 26.9928 53.5651 27.0318 53.5651C27.0707 53.5651 27.1036 53.5732 27.1036 53.5854C27.1036 53.5955 27.1364 53.6057 27.1774 53.6057C27.2164 53.6057 27.2451 53.6138 27.239 53.6239C27.2328 53.634 27.2862 53.6482 27.36 53.6563C27.4339 53.6624 27.4975 53.6786 27.5037 53.6888C27.5119 53.6989 27.5468 53.707 27.5857 53.707C27.6247 53.707 27.6617 53.7151 27.6678 53.7273C27.674 53.7374 27.7129 53.7476 27.7519 53.7476C27.7909 53.7476 27.8217 53.7557 27.8217 53.7679C27.8217 53.778 27.8586 53.7881 27.9038 53.7881C27.9489 53.7881 27.9858 53.7962 27.9858 53.8064C27.9858 53.8165 28.0597 53.8307 28.15 53.8388C28.2402 53.8469 28.3141 53.8611 28.3141 53.8713C28.3141 53.8814 28.3551 53.8895 28.4064 53.8895C28.4577 53.8895 28.4988 53.8976 28.4988 53.9098C28.4988 53.9199 28.5398 53.93 28.5911 53.93C28.6424 53.93 28.6834 53.9382 28.6834 53.9503C28.6834 53.9605 28.7306 53.9706 28.7881 53.9706C28.8435 53.9706 28.8865 53.9787 28.8804 53.9888C28.8742 53.999 28.9645 54.0132 29.0835 54.0213C29.2025 54.0294 29.3051 54.0436 29.3113 54.0537C29.3174 54.0639 29.3667 54.072 29.4241 54.072C29.4795 54.072 29.5246 54.0801 29.5246 54.0922C29.5246 54.1044 29.5821 54.1125 29.658 54.1125C29.7339 54.1125 29.7914 54.1206 29.7914 54.1328C29.7914 54.145 29.8488 54.1531 29.9247 54.1531C29.9986 54.1531 30.0581 54.1612 30.0581 54.1713C30.0581 54.1814 30.2017 54.1956 30.3761 54.2038C30.5505 54.2119 30.7003 54.2261 30.7064 54.2362C30.7126 54.2463 30.809 54.2544 30.9219 54.2544C31.0429 54.2544 31.125 54.2626 31.125 54.2747C31.125 54.2869 31.2358 54.295 31.4184 54.295C31.6133 54.295 31.6995 54.3011 31.679 54.3153C31.6585 54.3274 32.0811 54.3355 32.8895 54.3355C33.6979 54.3355 34.1206 54.3274 34.1 54.3153C34.0795 54.3011 34.1657 54.295 34.3627 54.295C34.5432 54.295 34.654 54.2869 34.654 54.2747C34.654 54.2626 34.7361 54.2544 34.8571 54.2544C34.97 54.2544 35.0664 54.2463 35.0726 54.2362C35.0787 54.2261 35.2285 54.2119 35.4029 54.2038C35.5773 54.1956 35.7209 54.1814 35.7209 54.1713C35.7209 54.1612 35.7804 54.1531 35.8543 54.1531C35.9302 54.1531 35.9876 54.145 35.9876 54.1328C35.9876 54.1206 36.0451 54.1125 36.121 54.1125C36.1969 54.1125 36.2544 54.1044 36.2544 54.0922C36.2544 54.0801 36.2995 54.072 36.3549 54.072C36.4124 54.072 36.4616 54.0639 36.4678 54.0537C36.4739 54.0436 36.5765 54.0294 36.6955 54.0213C36.8145 54.0132 36.9048 53.999 36.8986 53.9888C36.8925 53.9787 36.9356 53.9706 36.991 53.9706C37.0484 53.9706 37.0956 53.9605 37.0956 53.9503C37.0956 53.9382 37.1366 53.93 37.1879 53.93C37.2392 53.93 37.2803 53.9199 37.2803 53.9098C37.2803 53.8976 37.3213 53.8895 37.3726 53.8895C37.4239 53.8895 37.4649 53.8814 37.4649 53.8713C37.4649 53.8611 37.5388 53.8469 37.629 53.8388C37.7193 53.8307 37.7932 53.8165 37.7932 53.8064C37.7932 53.7962 37.8363 53.7881 37.8876 53.7881C37.943 53.7881 37.9758 53.78 37.9676 53.7679C37.9594 53.7557 37.984 53.7476 38.0271 53.7476C38.0661 53.7476 38.1051 53.7374 38.1112 53.7273C38.1174 53.7151 38.1543 53.707 38.1933 53.707C38.2323 53.707 38.2671 53.6989 38.2753 53.6888C38.2815 53.6786 38.3451 53.6624 38.419 53.6563C38.4928 53.6482 38.5462 53.634 38.54 53.6239C38.5339 53.6138 38.5626 53.6057 38.6016 53.6057C38.6426 53.6057 38.6754 53.5955 38.6754 53.5854C38.6754 53.5732 38.7083 53.5651 38.7472 53.5651C38.7862 53.5651 38.8191 53.555 38.8191 53.5448C38.8191 53.5327 38.8396 53.5246 38.8663 53.5246C38.8909 53.5246 38.9483 53.5104 38.9935 53.4941C39.0386 53.4779 39.1063 53.4658 39.1432 53.4637C39.1843 53.4637 39.2068 53.4556 39.1986 53.4435C39.1904 53.4313 39.215 53.4232 39.2581 53.4232C39.2992 53.4232 39.332 53.413 39.332 53.4029C39.332 53.3907 39.3607 53.3826 39.3935 53.3826C39.4284 53.3826 39.4551 53.3745 39.4551 53.3644C39.4551 53.3502 39.5331 53.3299 39.6439 53.3137C39.65 53.3117 39.6644 53.3056 39.6726 53.2975C39.6808 53.2873 39.7095 53.2813 39.7362 53.2813C39.7629 53.2813 39.7834 53.2711 39.7834 53.261C39.7834 53.2488 39.8121 53.2407 39.8449 53.2407C39.8798 53.2407 39.9065 53.2306 39.9065 53.2204C39.9065 53.2083 39.9291 53.2002 39.9557 53.2002C39.9845 53.2002 40.0111 53.1921 40.0193 53.1819C40.0255 53.1698 40.0727 53.1556 40.1219 53.1475C40.1732 53.1414 40.2142 53.1272 40.2142 53.117C40.2142 53.1069 40.243 53.0988 40.2779 53.0988C40.3127 53.0988 40.3353 53.0907 40.3271 53.0785C40.3189 53.0664 40.3415 53.0582 40.3763 53.0582C40.4112 53.0582 40.4399 53.0481 40.4399 53.038C40.4399 53.0258 40.4584 53.0177 40.4789 53.0177C40.5015 53.0177 40.5241 53.0096 40.5323 52.9995C40.5384 52.9873 40.5856 52.9731 40.6349 52.965C40.6862 52.9589 40.7272 52.9447 40.7272 52.9346C40.7272 52.9244 40.7518 52.9163 40.7805 52.9163C40.8093 52.9163 40.8277 52.9082 40.8195 52.896C40.8113 52.8839 40.8298 52.8758 40.8585 52.8758C40.8872 52.8758 40.9118 52.8656 40.9118 52.8555C40.9118 52.8433 40.9283 52.8352 40.9508 52.8352C40.9713 52.8352 41.0165 52.821 41.0473 52.8048C41.0801 52.7886 41.1273 52.7744 41.1539 52.7744C41.1806 52.7744 41.195 52.7663 41.1888 52.7541C41.1806 52.742 41.1991 52.7339 41.2278 52.7339C41.2565 52.7339 41.2812 52.7237 41.2812 52.7136C41.2812 52.7014 41.2955 52.6933 41.3119 52.6933C41.3284 52.6933 41.3591 52.6852 41.3796 52.6751C41.4617 52.6325 41.5663 52.5919 41.5971 52.5919C41.6156 52.5919 41.63 52.5818 41.63 52.5717C41.63 52.5595 41.6525 52.5514 41.6792 52.5514C41.7059 52.5514 41.7325 52.5433 41.7366 52.5352C41.7469 52.5108 41.9746 52.4095 42.0198 52.4095C42.0424 52.4095 42.0608 52.3993 42.0608 52.3892C42.0608 52.377 42.0793 52.3689 42.1039 52.3689C42.1265 52.3689 42.1388 52.3608 42.1326 52.3486C42.1265 52.3365 42.1388 52.3284 42.1614 52.3284C42.186 52.3284 42.2044 52.3203 42.2044 52.3101C42.2044 52.3 42.225 52.2878 42.2516 52.2817C42.346 52.2594 42.4507 52.2128 42.4363 52.2006C42.4301 52.1925 42.4424 52.1864 42.4671 52.1864C42.4917 52.1864 42.5122 52.1763 42.5122 52.1662C42.5122 52.154 42.5266 52.1459 42.543 52.1459C42.5594 52.1459 42.6025 52.1276 42.6394 52.1074C42.6743 52.0851 42.7112 52.0709 42.7215 52.077C42.7297 52.083 42.7379 52.077 42.7379 52.0668C42.7379 52.0547 42.7564 52.0445 42.7769 52.0445C42.7995 52.0445 42.82 52.0384 42.8241 52.0283C42.8343 52.006 43.0416 51.9026 43.0764 51.9026C43.0929 51.9026 43.1072 51.8925 43.1072 51.8823C43.1072 51.8702 43.1216 51.8621 43.138 51.8621C43.1544 51.8621 43.1688 51.8519 43.1688 51.8418C43.1688 51.8296 43.1872 51.8215 43.2098 51.8215C43.2324 51.8215 43.2508 51.8114 43.2508 51.8012C43.2508 51.7891 43.2652 51.781 43.2816 51.781C43.298 51.781 43.3124 51.7728 43.3124 51.7627C43.3124 51.7526 43.3391 51.7384 43.3739 51.7303C43.4068 51.7222 43.4396 51.708 43.4458 51.6978C43.454 51.6877 43.4765 51.6796 43.4991 51.6796C43.5217 51.6796 43.534 51.6715 43.5278 51.6593C43.5217 51.6492 43.5299 51.639 43.5463 51.639C43.5648 51.639 43.5791 51.6309 43.5791 51.6228C43.5791 51.6147 43.6263 51.5904 43.6817 51.5681C43.7392 51.5458 43.7843 51.5214 43.7843 51.5133C43.7843 51.5052 43.8028 51.4971 43.8274 51.4971C43.8499 51.4971 43.8623 51.487 43.8561 51.4768C43.8499 51.4647 43.8582 51.4566 43.8746 51.4566C43.893 51.4566 43.9074 51.4505 43.9074 51.4403C43.9074 51.4322 43.9484 51.4079 43.9997 51.3856C44.051 51.3633 44.0921 51.339 44.0921 51.3288C44.0921 51.3207 44.1064 51.3146 44.1228 51.3146C44.1392 51.3146 44.1536 51.3045 44.1536 51.2944C44.1536 51.2822 44.1721 51.2741 44.1946 51.2741C44.2172 51.2741 44.2357 51.268 44.2357 51.2579C44.2357 51.2396 44.3526 51.1727 44.3875 51.1727C44.3998 51.1727 44.4244 51.1545 44.4409 51.1322C44.4573 51.1099 44.4819 51.0916 44.4963 51.0916C44.5106 51.0916 44.5229 51.0835 44.5229 51.0734C44.5229 51.0572 44.5988 51.0247 44.6317 51.0288C44.6399 51.0308 44.646 51.0207 44.646 51.0105C44.646 50.9984 44.6563 50.9902 44.6686 50.9902C44.683 50.9902 44.7076 50.974 44.726 50.9538C44.7445 50.9355 44.7958 50.901 44.8409 50.8787C44.8861 50.8564 44.9374 50.822 44.9558 50.8017C44.9743 50.7835 44.9989 50.7672 45.0133 50.7672C45.0256 50.7672 45.0359 50.7612 45.0359 50.751C45.0359 50.7429 45.0728 50.7186 45.1179 50.6983C45.1631 50.676 45.2 50.6517 45.2 50.6415C45.2 50.6334 45.2103 50.6253 45.2205 50.6253C45.2328 50.6253 45.2616 50.6091 45.2841 50.5868C45.3067 50.5665 45.36 50.532 45.4011 50.5118C45.4421 50.4895 45.4913 50.457 45.5098 50.4368C45.5283 50.4185 45.5508 50.4023 45.5611 50.4023C45.5714 50.4023 45.5939 50.384 45.6103 50.3638C45.6247 50.3415 45.6452 50.3273 45.6555 50.3334C45.6637 50.3394 45.6719 50.3334 45.6719 50.3232C45.6719 50.3111 45.6863 50.3009 45.7027 50.3009C45.7191 50.3009 45.7335 50.2908 45.7335 50.2806C45.7335 50.2685 45.7478 50.2604 45.7663 50.2604C45.7827 50.2604 45.7909 50.2502 45.7847 50.2401C45.7786 50.2279 45.7847 50.2198 45.8012 50.2198C45.8155 50.2198 45.8484 50.2016 45.8709 50.1813C45.8955 50.159 45.9202 50.1468 45.9263 50.1529C45.9325 50.161 45.9386 50.1549 45.9386 50.1428C45.9386 50.1286 45.9489 50.1185 45.9591 50.1185C45.9715 50.1185 46.0084 50.0921 46.0453 50.0576C46.0802 50.0252 46.1171 49.9968 46.1253 49.9968C46.1335 49.9968 46.1643 49.9745 46.193 49.9461C46.2218 49.9177 46.2505 49.8954 46.2566 49.8954C46.2628 49.8954 46.2915 49.8731 46.3203 49.8447C46.349 49.8164 46.3798 49.7941 46.388 49.7941C46.3962 49.7941 46.4331 49.7657 46.468 49.7332C46.5049 49.6988 46.5398 49.6724 46.548 49.6724C46.5583 49.6724 46.6054 49.6359 46.6526 49.5913C46.7019 49.5467 46.7491 49.5102 46.7552 49.5102C46.7634 49.5102 46.8086 49.4737 46.8578 49.4291C46.905 49.3845 46.9481 49.348 46.9542 49.348C46.9604 49.348 46.9891 49.3277 47.0158 49.3014C47.0425 49.2771 47.0938 49.2325 47.1327 49.202C47.1696 49.1717 47.2229 49.1271 47.2496 49.1048L47.2497 49.1047C47.2784 49.0824 47.3133 49.0682 47.3277 49.0743C47.3441 49.0784 47.3502 49.0743 47.3441 49.0642C47.3297 49.0398 47.5349 48.8493 47.5718 48.8533C47.5862 48.8554 47.5923 48.8432 47.5841 48.8249C47.5759 48.8026 47.5821 48.7966 47.6088 48.8067C47.6293 48.8148 47.6395 48.8128 47.6313 48.8006C47.617 48.7763 47.6724 48.7155 47.6908 48.7337C47.697 48.7418 47.7031 48.7357 47.7031 48.7236C47.7031 48.7094 47.7134 48.6992 47.7257 48.6992C47.738 48.6992 47.7852 48.6587 47.8324 48.608C47.8775 48.5573 47.9268 48.5188 47.9411 48.5249C47.9596 48.531 47.9637 48.5249 47.9555 48.5026C47.9452 48.4782 47.9514 48.4722 47.976 48.4823C48.0006 48.4904 48.0047 48.4864 47.9965 48.462C47.9863 48.4357 47.9924 48.4316 48.0191 48.4417C48.0417 48.4499 48.0499 48.4478 48.0396 48.4336C48.0294 48.4174 48.2633 48.1762 48.4254 48.0383C48.4397 48.0261 48.4664 47.9957 48.4828 47.9734C48.5033 47.941 48.5156 47.9369 48.5279 47.9552C48.5382 47.9714 48.5443 47.9633 48.5443 47.9329C48.5443 47.9065 48.5526 47.8903 48.5608 47.8964C48.571 47.9025 48.5915 47.8883 48.608 47.8639C48.6633 47.7849 48.7434 47.7078 48.7577 47.72C48.7639 47.7261 48.77 47.722 48.77 47.7078C48.77 47.6693 48.9896 47.4564 49.0142 47.4706C49.0286 47.4807 49.0306 47.4726 49.0224 47.4503C49.0122 47.424 49.0163 47.4179 49.0429 47.428C49.0675 47.4361 49.0716 47.4321 49.0634 47.4078C49.0532 47.3834 49.0593 47.3773 49.084 47.3875C49.1065 47.3956 49.1127 47.3915 49.1065 47.3733C49.1004 47.3571 49.1188 47.3267 49.1476 47.3044C49.1763 47.2821 49.2009 47.2537 49.2009 47.2395C49.2009 47.2273 49.2112 47.2233 49.2214 47.2293C49.2337 47.2354 49.2419 47.2314 49.2419 47.2172C49.2419 47.205 49.2625 47.1766 49.2871 47.1563C49.3097 47.134 49.324 47.1178 49.3158 47.1178C49.3076 47.1178 49.3158 47.1036 49.3322 47.0854C49.3507 47.0692 49.3733 47.059 49.3856 47.0671C49.3979 47.0753 49.3999 47.0651 49.3917 47.0448C49.3815 47.0165 49.3856 47.0124 49.4143 47.0225C49.4369 47.0306 49.4451 47.0286 49.4369 47.0144C49.4287 47.0043 49.4471 46.9719 49.4758 46.9455C49.5046 46.9191 49.5292 46.8867 49.5292 46.8745C49.5292 46.8624 49.5395 46.8583 49.5497 46.8644C49.562 46.8705 49.5702 46.8664 49.5702 46.8543C49.5702 46.8198 49.6277 46.7691 49.6523 46.7833C49.6626 46.7894 49.6667 46.7833 49.6605 46.7671C49.6543 46.7509 49.6728 46.7144 49.7015 46.686C49.7303 46.6556 49.7549 46.6272 49.7549 46.6211C49.7549 46.615 49.7754 46.5887 49.8021 46.5623C49.8267 46.5359 49.8595 46.4954 49.8759 46.4731C49.8923 46.4488 49.9129 46.4346 49.9231 46.4407C49.9313 46.4467 49.9395 46.4305 49.9395 46.4042C49.9395 46.3677 49.9436 46.3636 49.9601 46.3879C49.9765 46.4143 49.9806 46.4123 49.9806 46.3798C49.9806 46.3596 50.0031 46.321 50.0319 46.2947C50.0606 46.2683 50.0832 46.2379 50.0832 46.2258C50.0832 46.2136 50.0934 46.2095 50.1037 46.2156C50.116 46.2217 50.1242 46.2095 50.1242 46.1852C50.1242 46.1609 50.1345 46.1487 50.1447 46.1548C50.157 46.1609 50.1652 46.1528 50.1652 46.1365C50.1652 46.1203 50.1878 46.0899 50.2165 46.0676C50.2453 46.0453 50.2678 46.0129 50.2678 45.9926C50.2678 45.9743 50.2781 45.9662 50.2883 45.9723C50.3006 45.9784 50.3089 45.9703 50.3089 45.95C50.3089 45.9237 50.315 45.9216 50.3376 45.9399C50.3622 45.9602 50.3643 45.9561 50.356 45.9237C50.3499 45.8953 50.356 45.877 50.3786 45.8689C50.3971 45.8628 50.4114 45.8426 50.4114 45.8263C50.4114 45.7899 50.4627 45.7371 50.4812 45.7534C50.4874 45.7615 50.4935 45.7452 50.4935 45.7209C50.4935 45.6966 50.5017 45.6824 50.514 45.6885C50.5263 45.6946 50.5345 45.6905 50.5345 45.6783C50.5345 45.6439 50.6084 45.5547 50.6248 45.5709C50.631 45.577 50.6371 45.5668 50.6371 45.5445C50.6371 45.5222 50.6556 45.4918 50.6782 45.4756C50.7007 45.4594 50.7192 45.435 50.7192 45.4209C50.7192 45.4067 50.7295 45.3945 50.7418 45.3945C50.752 45.3945 50.7582 45.3864 50.752 45.3783C50.7459 45.3681 50.7602 45.3479 50.7828 45.3337C50.8033 45.3175 50.8218 45.287 50.8218 45.2668C50.8218 45.2465 50.8321 45.2364 50.8423 45.2424C50.8546 45.2485 50.8628 45.2404 50.8628 45.2201C50.8628 45.1938 50.869 45.1918 50.8916 45.21C50.9141 45.2282 50.9162 45.2242 50.91 45.1836C50.9039 45.1512 50.9162 45.1208 50.9531 45.0843C50.9818 45.0559 51.0064 45.0215 51.0064 45.0093C51.0064 44.9991 51.0167 44.989 51.027 44.989C51.0393 44.989 51.0475 44.9748 51.0475 44.9566C51.0475 44.9403 51.0557 44.9302 51.0659 44.9363C51.0762 44.9424 51.0906 44.9262 51.0967 44.8978C51.1049 44.8694 51.1193 44.8471 51.1296 44.8471C51.1419 44.8471 51.1501 44.8329 51.1501 44.8146C51.1501 44.7984 51.1603 44.7903 51.1706 44.7964C51.1829 44.8025 51.1911 44.7903 51.1911 44.768C51.1911 44.7437 51.2014 44.7254 51.2116 44.7254C51.2239 44.7254 51.2321 44.7113 51.2321 44.693C51.2321 44.6768 51.2404 44.6666 51.2506 44.6727C51.2609 44.6788 51.2752 44.6626 51.2814 44.6342C51.2896 44.6058 51.3039 44.5835 51.3142 44.5835C51.3265 44.5835 51.3347 44.5653 51.3347 44.5409C51.3347 44.5186 51.345 44.5065 51.3552 44.5126C51.3676 44.5186 51.3758 44.5045 51.3758 44.4781C51.3758 44.4416 51.3799 44.4375 51.3963 44.4619C51.4127 44.4862 51.4168 44.4842 51.4168 44.4497C51.4168 44.4254 51.4312 44.395 51.4476 44.3808C51.464 44.3666 51.4784 44.3423 51.4784 44.326C51.4784 44.3078 51.4907 44.2997 51.505 44.3058C51.5255 44.3139 51.5317 44.3017 51.5255 44.2632C51.5173 44.2206 51.5214 44.2145 51.5378 44.2389C51.5563 44.2632 51.5604 44.2612 51.5604 44.2226C51.5604 44.1983 51.5686 44.178 51.5789 44.178C51.5891 44.178 51.6035 44.1557 51.6097 44.1273C51.6179 44.099 51.6322 44.0767 51.6425 44.0767C51.6548 44.0767 51.663 44.0584 51.663 44.0361C51.663 44.0138 51.6733 43.9956 51.6835 43.9956C51.6958 43.9956 51.704 43.9814 51.704 43.9631C51.704 43.9469 51.7143 43.9388 51.7246 43.9449C51.7369 43.951 51.7451 43.9388 51.7451 43.9145C51.7451 43.8901 51.7553 43.878 51.7656 43.8841C51.7779 43.8901 51.7861 43.878 51.7861 43.8536C51.7861 43.8313 51.8005 43.807 51.8169 43.8009C51.8333 43.7928 51.8477 43.7705 51.8477 43.7502C51.8477 43.73 51.8579 43.7117 51.8682 43.7117C51.8805 43.7117 51.8887 43.6935 51.8887 43.6691C51.8887 43.6468 51.899 43.6347 51.9092 43.6408C51.9215 43.6468 51.9297 43.6347 51.9297 43.6103C51.9297 43.586 51.94 43.5739 51.9503 43.5799C51.9626 43.586 51.9708 43.5739 51.9708 43.5516C51.9708 43.5292 51.9851 43.4988 52.0015 43.4806C52.018 43.4644 52.0323 43.434 52.0323 43.4137C52.0323 43.3833 52.0364 43.3812 52.0528 43.4076C52.0693 43.4319 52.0734 43.4258 52.0734 43.3812C52.0734 43.3488 52.0816 43.3285 52.0939 43.3366C52.1062 43.3427 52.1144 43.3306 52.1144 43.3083C52.1144 43.2839 52.1246 43.2657 52.1349 43.2657C52.1472 43.2657 52.1554 43.2474 52.1554 43.2272C52.1554 43.2049 52.1698 43.1744 52.1862 43.1562C52.2026 43.14 52.217 43.1116 52.217 43.0933C52.217 43.0751 52.2272 43.067 52.2375 43.0731C52.2498 43.0792 52.258 43.067 52.258 43.0427C52.258 43.0183 52.2683 43.0062 52.2785 43.0122C52.2908 43.0183 52.299 43.0062 52.299 42.9839C52.299 42.9595 52.3073 42.9413 52.3175 42.9413C52.3278 42.9413 52.3421 42.9089 52.3483 42.8703C52.3565 42.8318 52.3709 42.7994 52.3811 42.7994C52.3934 42.7994 52.4016 42.7852 52.4016 42.769C52.4016 42.7527 52.4119 42.7385 52.4222 42.7385C52.4345 42.7385 52.4427 42.7203 52.4427 42.696C52.4427 42.6737 52.4529 42.6615 52.4632 42.6676C52.4755 42.6737 52.4837 42.6656 52.4837 42.6473C52.4837 42.6291 52.4981 42.6007 52.5145 42.5845C52.5309 42.5662 52.5453 42.5358 52.5453 42.5135C52.5453 42.4932 52.5555 42.475 52.5658 42.475C52.5781 42.475 52.5863 42.4567 52.5863 42.4344C52.5863 42.4121 52.5966 42.3939 52.6068 42.3939C52.6191 42.3939 52.6273 42.3756 52.6273 42.3513C52.6273 42.329 52.6376 42.3168 52.6478 42.3229C52.6602 42.331 52.6684 42.3128 52.6684 42.2844C52.6684 42.256 52.6786 42.2317 52.6909 42.2317C52.7012 42.2317 52.7053 42.2236 52.6991 42.2114C52.693 42.1992 52.6971 42.1911 52.7073 42.1911C52.7197 42.1911 52.7299 42.1729 52.7299 42.1506C52.7299 42.1283 52.7402 42.11 52.7504 42.11C52.7627 42.11 52.771 42.0857 52.771 42.0533C52.771 42.0107 52.7751 42.0046 52.7915 42.0289C52.8058 42.0512 52.812 42.0411 52.812 41.9884C52.812 41.9357 52.8181 41.9255 52.8325 41.9478C52.8489 41.9722 52.853 41.9661 52.853 41.9235C52.853 41.8931 52.8674 41.8566 52.8838 41.8384C52.9023 41.8221 52.9166 41.8019 52.9146 41.7958C52.9105 41.7329 52.9187 41.7045 52.9351 41.7147C52.9474 41.7228 52.9556 41.7045 52.9556 41.6741C52.9556 41.6437 52.9638 41.6255 52.9761 41.6336C52.9884 41.6417 52.9966 41.6234 52.9966 41.593C52.9966 41.5626 53.0048 41.5444 53.0172 41.5525C53.0295 41.5586 53.0377 41.5423 53.0377 41.514C53.0377 41.4876 53.052 41.4511 53.0685 41.4329C53.0849 41.4166 53.0992 41.3842 53.0992 41.3619C53.0992 41.3376 53.1095 41.3193 53.1198 41.3193C53.1321 41.3193 53.1403 41.295 53.1403 41.2666C53.1403 41.2382 53.1485 41.22 53.1608 41.2281C53.1731 41.2362 53.1813 41.218 53.1813 41.1875C53.1813 41.1592 53.1895 41.1389 53.1998 41.145C53.21 41.1511 53.2223 41.1206 53.2305 41.076C53.2367 41.0314 53.2531 40.9949 53.2634 40.9949C53.2757 40.9949 53.2839 40.9706 53.2839 40.9422C53.2839 40.9138 53.2921 40.8956 53.3044 40.9037C53.3167 40.9118 53.3249 40.8895 53.3249 40.853C53.3249 40.8165 53.3331 40.7942 53.3454 40.8023C53.3578 40.8104 53.366 40.7881 53.366 40.7516C53.366 40.7172 53.3742 40.6929 53.3844 40.6989C53.3947 40.705 53.407 40.6746 53.4152 40.63C53.4214 40.5854 53.4378 40.5489 53.448 40.5489C53.4603 40.5489 53.4685 40.5205 53.4685 40.4861C53.4685 40.4516 53.4768 40.4293 53.4891 40.4374C53.5014 40.4455 53.5096 40.4232 53.5096 40.3827C53.5096 40.332 53.5157 40.3239 53.5301 40.3462C53.5369 40.3567 53.5418 40.3604 53.5452 40.3561C53.5461 40.3536 53.5471 40.351 53.5481 40.3485C53.5498 40.3407 53.5506 40.3279 53.5506 40.3097C53.5506 40.2752 53.5588 40.2448 53.5691 40.2448C53.5814 40.2448 53.5958 40.2042 53.604 40.1535C53.6101 40.1029 53.6245 40.0684 53.6347 40.0745C53.645 40.0806 53.6532 40.0562 53.6532 40.0238C53.6532 39.9893 53.6635 39.9609 53.6737 39.9609C53.686 39.9609 53.6942 39.9326 53.6942 39.8981C53.6942 39.8636 53.7024 39.8413 53.7148 39.8494C53.7271 39.8575 53.7353 39.8373 53.7353 39.8008C53.7353 39.7683 53.7455 39.7379 53.7578 39.7339C53.7681 39.7298 53.7845 39.6893 53.7907 39.6406C53.7968 39.594 53.8091 39.5615 53.8194 39.5676C53.8297 39.5737 53.8379 39.5453 53.8379 39.5048C53.8379 39.4602 53.8461 39.4358 53.8584 39.4439C53.8707 39.4521 53.8789 39.4277 53.8789 39.3851C53.8789 39.3446 53.8892 39.3122 53.8994 39.3122C53.9117 39.3122 53.9199 39.2858 53.9199 39.2534C53.9199 39.2209 53.9302 39.1905 53.9425 39.1865C53.9548 39.1824 53.9692 39.1358 53.9753 39.0831C53.9815 39.0303 53.9958 38.9878 54.0041 38.9878C54.0143 38.9878 54.0225 38.9594 54.0225 38.9249C54.0225 38.8905 54.0307 38.8681 54.043 38.8763C54.0553 38.8844 54.0636 38.854 54.0636 38.8012C54.0636 38.7465 54.0697 38.7242 54.082 38.7404C54.0923 38.7587 54.1025 38.7242 54.1107 38.6492C54.1169 38.5843 54.1333 38.5296 54.1456 38.5255C54.1559 38.5215 54.1661 38.4809 54.1661 38.4383C54.1661 38.3897 54.1744 38.3613 54.1867 38.3694C54.199 38.3775 54.2072 38.3471 54.2072 38.2944C54.2072 38.2315 54.2133 38.2153 54.2277 38.2376C54.2303 38.2417 54.2326 38.2443 54.2347 38.2455C54.2391 38.2293 54.2434 38.2132 54.2478 38.197C54.2481 38.1881 54.2482 38.178 54.2482 38.1667C54.2482 38.1038 54.2544 38.0754 54.2667 38.0916C54.2694 38.0965 54.2723 38.097 54.2752 38.0935C54.2805 38.0734 54.2857 38.0532 54.2909 38.033C54.2933 38.0169 54.2955 37.9979 54.2975 37.9761C54.3057 37.897 54.32 37.8321 54.3323 37.8321C54.3426 37.8321 54.3508 37.7956 54.3508 37.751C54.3508 37.7064 54.3611 37.6699 54.3713 37.6699C54.3836 37.6699 54.3918 37.6334 54.3918 37.5868C54.3918 37.5381 54.4 37.5098 54.4123 37.5179C54.4141 37.519 54.4158 37.5194 54.4174 37.5189C54.4225 37.497 54.4276 37.4751 54.4326 37.4533C54.4328 37.448 54.4329 37.4425 54.4329 37.4368C54.4329 37.3861 54.4411 37.3476 54.4513 37.3536C54.4527 37.3545 54.4541 37.3539 54.4556 37.352C54.463 37.3193 54.4702 37.2865 54.4774 37.2537C54.4799 37.2341 54.4822 37.2125 54.4842 37.1894C54.4944 37.0759 54.5047 37.0252 54.517 37.0434C54.5186 37.0459 54.5201 37.0474 54.5215 37.048C54.5261 37.0264 54.5306 37.0048 54.535 36.9831C54.5353 36.9732 54.5355 36.9623 54.5355 36.9502C54.5355 36.865 54.5416 36.8366 54.556 36.859C54.5571 36.8608 54.5583 36.8623 54.5593 36.8634C54.5651 36.8346 54.5708 36.8057 54.5765 36.7768C54.5765 36.7752 54.5765 36.7735 54.5765 36.7718C54.5765 36.6988 54.5847 36.6582 54.597 36.6663C54.5973 36.6665 54.5975 36.6666 54.5977 36.6668C54.6044 36.6317 54.611 36.5966 54.6175 36.5614C54.6178 36.5007 54.6258 36.4562 54.6358 36.4615C54.6492 36.3875 54.6621 36.3134 54.6747 36.2392C54.6774 36.1999 54.6791 36.1598 54.6791 36.123C54.6791 36.0764 54.6873 36.05 54.6996 36.0581C54.7013 36.0592 54.703 36.0594 54.7045 36.0586C54.7097 36.0261 54.7149 35.9936 54.72 35.9611C54.7201 35.9552 54.7201 35.949 54.7201 35.9425C54.7201 35.8585 54.7256 35.8266 54.7382 35.8419C54.7462 35.789 54.7539 35.736 54.7615 35.683C54.7629 35.6158 54.7687 35.5769 54.7771 35.5714C54.7876 35.4952 54.7977 35.4188 54.8073 35.3424C54.8274 35.1835 54.8458 35.0241 54.8624 34.8642C54.8673 34.7955 54.8729 34.7402 54.8779 34.7091C54.8877 34.6077 54.8967 34.5062 54.9051 34.4045C54.9062 34.323 54.9097 34.277 54.9162 34.264C54.9573 33.7206 54.9783 33.1717 54.9783 32.618C54.9783 28.6276 53.8911 24.8877 51.993 21.6707C51.9833 21.681 51.9725 21.6927 51.9605 21.7058C51.8969 21.7768 51.8066 21.8518 51.7512 21.8781C51.661 21.9207 51.6261 21.9268 51.3655 21.9248C51.0598 21.9248 50.9941 21.9146 50.393 21.7626C49.8677 21.6288 49.6256 21.5903 49.324 21.5903C49.0799 21.5903 49.0286 21.5963 48.8952 21.6409C48.6593 21.72 48.5115 21.8599 48.4192 22.0931C48.3782 22.1985 48.372 22.2471 48.372 22.535C48.3699 22.7743 48.3802 22.9081 48.4089 23.0419C48.4561 23.2751 48.571 23.6765 48.6121 23.7535C48.6654 23.8569 48.8131 23.9826 48.9342 24.0272C49.0778 24.082 49.3938 24.086 49.5907 24.0374C49.8903 23.9624 50.2576 23.7839 50.4238 23.6359C50.5489 23.5224 50.6351 23.492 50.791 23.5102C51.2403 23.565 51.7451 23.8407 52.1883 24.2786C52.4324 24.5199 52.5576 24.674 52.7135 24.9254C52.8653 25.1748 52.8982 25.2782 52.89 25.4951C52.8838 25.6553 52.8756 25.6938 52.8161 25.8073C52.6561 26.1115 52.416 26.3365 51.7061 26.8434C50.5284 27.6848 50.0503 28.1369 49.6708 28.7654C49.482 29.0796 49.3856 29.2094 49.2378 29.3493C49.0881 29.4912 48.9937 29.552 48.8213 29.623C48.7146 29.6656 48.6654 29.6717 48.452 29.6717C48.1319 29.6717 47.9904 29.6291 47.5595 29.4081C47.4036 29.327 47.0055 29.0533 46.7922 28.881C46.6916 28.7999 46.1376 28.3376 46.0412 28.2565C46.0125 28.2322 45.9448 28.1754 45.8873 28.1308C45.4688 27.8044 45.0153 27.334 44.644 26.8434C44.2747 26.3527 44.2193 26.2737 43.7433 25.5661C43.4252 25.0957 43.2344 24.82 42.9944 24.4915C42.9729 24.4626 42.9087 24.3694 42.846 24.2784L42.8364 24.2645C42.5738 23.8732 42.4158 23.7231 42.2701 23.7211C42.1326 23.7211 41.9316 23.8732 41.8946 24.011C41.8536 24.1651 41.9377 24.5321 42.1224 24.9862C42.307 25.4444 42.4301 25.706 42.8774 26.5798C43.0846 26.9873 43.2632 27.3279 43.2714 27.3401C43.2796 27.3502 43.3493 27.478 43.4252 27.6239C43.461 27.6918 43.5018 27.7682 43.5393 27.8384C43.5812 27.917 43.619 27.9876 43.6407 28.0294C43.8746 28.4613 44.1495 28.9945 44.2254 29.1648C44.4244 29.6108 44.5147 29.7102 44.9169 29.9332C45.2513 30.1177 45.9058 30.288 46.5644 30.361C47.0384 30.4137 47.2764 30.4786 47.5739 30.6387C48.0314 30.8861 48.2571 31.2247 48.2612 31.6687C48.2612 31.8491 48.2263 31.9708 48.1176 32.1735C48.0478 32.3053 47.8242 32.6338 47.7503 32.7128C47.7298 32.7351 47.6683 32.8081 47.6129 32.875C47.5575 32.9419 47.3174 33.1913 47.0794 33.4285C46.7203 33.7874 46.509 33.9881 45.9263 34.5173C45.9213 34.5214 45.9037 34.5372 45.8782 34.5602C45.8418 34.5931 45.789 34.6406 45.7335 34.6896C45.6779 34.7385 45.6252 34.786 45.5887 34.8189C45.5632 34.8419 45.5457 34.8577 45.5406 34.8619C45.5358 34.8667 45.5061 34.8935 45.4597 34.9354C45.3878 35.0005 45.2759 35.1017 45.1549 35.2127C44.6255 35.6932 44.4942 35.8473 44.4285 36.0682C44.3896 36.2 44.3834 36.8326 44.4203 37.1083C44.4326 37.1996 44.4511 37.3476 44.4614 37.4368C44.4819 37.6071 44.5537 38.1058 44.5845 38.2984C44.7158 39.1074 44.7691 39.5109 44.7691 39.7136C44.7691 39.9589 44.7384 40.04 44.5475 40.2894C44.3896 40.4942 44.2603 40.6239 43.8458 41.001C43.3883 41.4146 42.8877 41.9093 42.8036 42.033C42.6743 42.2195 42.6374 42.3168 42.6148 42.5277C42.5861 42.7791 42.5122 43.067 42.4301 43.2555C42.4199 43.2778 42.3829 43.365 42.3481 43.4482C42.2824 43.5982 42.0629 44.0402 41.9849 44.178C41.593 44.8593 40.799 46.0149 40.3066 46.6211C39.8039 47.2374 39.4777 47.4828 38.9606 47.6308C38.5216 47.7565 38.341 47.7747 37.547 47.7767H36.8596L36.7386 47.7159C36.4883 47.5902 36.3282 47.3145 36.2133 46.8117C36.1518 46.538 36.1374 46.4731 36.1128 46.3474C36.1089 46.3293 36.1036 46.3051 36.0974 46.2766C36.0682 46.1421 36.0181 45.9119 35.9876 45.7797C35.9828 45.7616 35.9743 45.7277 35.9642 45.687C35.9527 45.6412 35.9391 45.5868 35.9261 45.5364C35.881 45.36 35.7968 45.0174 35.7209 44.695C35.5424 43.9469 35.4029 43.4745 35.2285 43.0447C35.0582 42.6189 34.89 42.3371 34.6438 42.0593C34.3442 41.7228 34.2642 41.5545 34.1575 41.0456C34.1247 40.8834 34.1247 40.0339 34.1575 39.7683L34.1597 39.7516C34.1846 39.5646 34.1921 39.5076 34.2539 39.1196C34.2633 39.0608 34.27 39.0187 34.2771 38.9767C34.2967 38.862 34.3198 38.748 34.4099 38.2984C34.5206 37.7429 34.5494 37.5381 34.5514 37.2827C34.5514 36.9745 34.4878 36.5609 34.3852 36.1899C34.3093 35.9263 34.1062 35.3404 34.0262 35.16C34.0077 35.1194 33.9851 35.0667 33.9769 35.0444C33.9605 35.0038 33.6692 34.3125 33.6138 34.1827C33.4907 33.8969 33.3286 33.609 33.2116 33.4731C32.9839 33.2055 32.6433 32.9926 32.3027 32.9075C31.8 32.7797 31.2604 32.798 30.3864 32.9683C30.3351 32.9784 30.2017 32.9946 30.0889 33.0068C29.9402 33.0199 29.7968 33.0356 29.4261 33.0761C29.3365 33.0859 29.2337 33.0972 29.1143 33.1102C27.8545 33.2481 26.7261 33.3008 26.1146 33.2521C25.5053 33.2035 25.4006 33.1629 24.8672 32.7777C24.2414 32.3236 23.989 31.9018 23.8331 31.0503C23.7674 30.6935 23.749 30.3955 23.749 29.7122C23.749 28.96 23.7777 28.5484 23.8639 28.0497C23.9439 27.5895 24.108 26.9873 24.2578 26.5899C24.2698 26.561 24.2896 26.5063 24.3104 26.4488C24.3217 26.4178 24.3332 26.3859 24.344 26.3568C24.3538 26.3301 24.3637 26.303 24.3729 26.2778C24.3924 26.2244 24.4088 26.1793 24.4158 26.1642C24.4343 26.1216 24.6989 25.4302 24.7646 25.2518C24.8323 25.0734 24.9431 24.751 25.019 24.5199C25.3165 23.6055 25.7494 23.0946 26.7137 22.5208C26.7979 22.4702 27.0892 22.308 27.36 22.16C27.6309 22.012 27.8914 21.864 27.9386 21.8315C27.9858 21.8011 28.0289 21.7748 28.0371 21.7748C28.0597 21.7748 28.2731 21.6349 28.6732 21.3591C29.1204 21.051 29.3359 20.9334 29.6313 20.836C30.1771 20.6556 30.6469 20.6353 31.4225 20.759C31.5661 20.7813 32.1652 20.8948 32.2842 20.9232C32.3684 20.9415 32.512 20.9678 32.7377 21.0043C32.8054 21.0165 33.0639 21.0388 33.3122 21.055C33.5604 21.0712 33.8169 21.0976 33.8805 21.1138C34.0775 21.1645 34.2806 21.2841 34.4406 21.4402C34.6253 21.6186 34.7053 21.7423 34.9597 22.237C35.3065 22.9061 35.3988 22.9872 35.9261 23.0825C36.4144 23.1717 36.5724 23.1595 37.0156 23.0074L37.3315 22.9L37.6085 22.902C37.7747 22.904 38.0066 22.9223 38.1933 22.9486C38.9894 23.0662 39.2746 23.0926 39.7157 23.0926C40.7272 23.0926 41.5007 22.8209 42.1757 22.2269C42.5553 21.8923 42.9533 21.3936 43.1031 21.0651C43.216 20.8178 43.2406 20.7103 43.2385 20.4468C43.2365 20.2339 43.2303 20.1852 43.1811 20.0534C43.0395 19.6824 42.859 19.4432 42.1696 18.7336C41.6402 18.1882 41.5417 18.0848 41.4145 17.9327C41.2217 17.7036 41.1888 17.6692 41.0144 17.4948C40.7969 17.2779 40.7026 17.2252 40.522 17.2231C40.3456 17.2231 40.2922 17.2515 39.9845 17.511C39.5474 17.88 39.3669 17.9814 38.9709 18.0828C38.8457 18.1152 38.3431 18.1112 38.1625 18.0747C37.7727 17.9976 37.4998 17.9084 37.034 17.7057C36.4349 17.4421 36.281 17.3813 35.8851 17.2535C35.3639 17.0853 35.1936 17.0508 34.8715 17.0508C34.3421 17.0508 34.1308 17.1947 33.5809 17.9226C32.949 18.762 32.6269 19.0641 32.0852 19.3337C31.4081 19.6703 30.6039 19.8588 29.6354 19.9095C29.0609 19.9399 28.3572 19.8994 28.0063 19.8183C27.986 19.8125 27.9481 19.8037 27.9095 19.7947C27.8936 19.791 27.8776 19.7873 27.8627 19.7838C27.6986 19.7453 27.4647 19.6642 27.3457 19.6013C26.8738 19.354 26.8184 18.8309 27.1856 18.0848C27.3108 17.8293 27.4914 17.58 27.7294 17.3387C28.1007 16.9575 28.4516 16.767 28.7778 16.767C28.8783 16.767 29.1061 16.7284 29.2312 16.6899C29.3933 16.6392 29.5616 16.5297 29.7319 16.3615C29.8816 16.2155 29.9227 16.1587 30.0027 15.9965C30.1525 15.6904 30.1833 15.5545 30.1956 15.1653C30.2038 14.8774 30.1976 14.7983 30.1586 14.5976C30.056 14.0705 30.0971 13.5859 30.3064 12.8641L30.3121 12.845C30.3259 12.7985 30.3536 12.706 30.3782 12.6208C30.489 12.2397 30.6921 11.6618 30.9096 11.1002C30.9382 11.0277 30.9654 10.9579 30.9872 10.9018Z" fill="#135DA1"/>
</svg>
